solid ASCII
  facet normal 0.000000e+00 1.000000e+00 0.000000e+00
    outer loop
      vertex   -4.500000e+01 1.000000e+00 1.600000e+00
      vertex   -4.500000e+01 1.000000e+00 0.000000e+00
      vertex   -4.500100e+01 1.000000e+00 1.600000e+00
    endloop
  endfacet
  facet normal 0.000000e+00 1.000000e+00 0.000000e+00
    outer loop
      vertex   -4.500100e+01 1.000000e+00 1.600000e+00
      vertex   -4.500000e+01 1.000000e+00 0.000000e+00
      vertex   -4.500100e+01 1.000000e+00 0.000000e+00
    endloop
  endfacet
  facet normal 0.000000e+00 -0.000000e+00 1.000000e+00
    outer loop
      vertex   -4.500000e+01 -1.000000e+00 1.600000e+00
      vertex   -4.500000e+01 1.000000e+00 1.600000e+00
      vertex   -4.500100e+01 -1.000000e+00 1.600000e+00
    endloop
  endfacet
  facet normal 0.000000e+00 0.000000e+00 1.000000e+00
    outer loop
      vertex   -4.500100e+01 -1.000000e+00 1.600000e+00
      vertex   -4.500000e+01 1.000000e+00 1.600000e+00
      vertex   -4.500100e+01 1.000000e+00 1.600000e+00
    endloop
  endfacet
  facet normal 0.000000e+00 -1.000000e+00 0.000000e+00
    outer loop
      vertex   -4.500000e+01 -1.000000e+00 0.000000e+00
      vertex   -4.500000e+01 -1.000000e+00 1.600000e+00
      vertex   -4.500100e+01 -1.000000e+00 0.000000e+00
    endloop
  endfacet
  facet normal 0.000000e+00 -1.000000e+00 0.000000e+00
    outer loop
      vertex   -4.500100e+01 -1.000000e+00 0.000000e+00
      vertex   -4.500000e+01 -1.000000e+00 1.600000e+00
      vertex   -4.500100e+01 -1.000000e+00 1.600000e+00
    endloop
  endfacet
  facet normal -0.000000e+00 -0.000000e+00 -1.000000e+00
    outer loop
      vertex   -4.500000e+01 1.000000e+00 0.000000e+00
      vertex   -4.500000e+01 -1.000000e+00 0.000000e+00
      vertex   -4.500100e+01 1.000000e+00 0.000000e+00
    endloop
  endfacet
  facet normal 0.000000e+00 0.000000e+00 -1.000000e+00
    outer loop
      vertex   -4.500100e+01 1.000000e+00 0.000000e+00
      vertex   -4.500000e+01 -1.000000e+00 0.000000e+00
      vertex   -4.500100e+01 -1.000000e+00 0.000000e+00
    endloop
  endfacet
  facet normal -1.000000e+00 0.000000e+00 0.000000e+00
    outer loop
      vertex   -4.500100e+01 -1.000000e+00 0.000000e+00
      vertex   -4.500100e+01 -1.000000e+00 1.600000e+00
      vertex   -4.500100e+01 1.000000e+00 0.000000e+00
    endloop
  endfacet
  facet normal -1.000000e+00 0.000000e+00 0.000000e+00
    outer loop
      vertex   -4.500100e+01 1.000000e+00 0.000000e+00
      vertex   -4.500100e+01 -1.000000e+00 1.600000e+00
      vertex   -4.500100e+01 1.000000e+00 1.600000e+00
    endloop
  endfacet
  facet normal 1.000000e+00 0.000000e+00 0.000000e+00
    outer loop
      vertex   -4.500000e+01 -1.000000e+00 0.000000e+00
      vertex   -4.500000e+01 1.000000e+00 0.000000e+00
      vertex   -4.500000e+01 -1.000000e+00 1.600000e+00
    endloop
  endfacet
  facet normal 1.000000e+00 -0.000000e+00 0.000000e+00
    outer loop
      vertex   -4.500000e+01 -1.000000e+00 1.600000e+00
      vertex   -4.500000e+01 1.000000e+00 0.000000e+00
      vertex   -4.500000e+01 1.000000e+00 1.600000e+00
    endloop
  endfacet
endsolid
