solid ASCII
  facet normal 0.000000e+00 1.000000e+00 0.000000e+00
    outer loop
      vertex   -7.050000e-01 7.050000e-01 5.904000e-01
      vertex   -4.750000e+01 7.050000e-01 5.904000e-01
      vertex   -7.050000e-01 7.050000e-01 6.254000e-01
    endloop
  endfacet
  facet normal 0.000000e+00 1.000000e+00 0.000000e+00
    outer loop
      vertex   -7.050000e-01 7.050000e-01 6.254000e-01
      vertex   -4.750000e+01 7.050000e-01 5.904000e-01
      vertex   -4.750000e+01 7.050000e-01 6.254000e-01
    endloop
  endfacet
  facet normal -1.000000e+00 -0.000000e+00 -3.172066e-15
    outer loop
      vertex   -7.050000e-01 8.705000e+00 5.904000e-01
      vertex   -7.050000e-01 7.050000e-01 5.904000e-01
      vertex   -7.050000e-01 8.705000e+00 6.254000e-01
    endloop
  endfacet
  facet normal -1.000000e+00 -0.000000e+00 -3.172066e-15
    outer loop
      vertex   -7.050000e-01 8.705000e+00 6.254000e-01
      vertex   -7.050000e-01 7.050000e-01 5.904000e-01
      vertex   -7.050000e-01 7.050000e-01 6.254000e-01
    endloop
  endfacet
  facet normal 0.000000e+00 1.000000e+00 -0.000000e+00
    outer loop
      vertex   7.050000e-01 8.705000e+00 5.904000e-01
      vertex   -7.050000e-01 8.705000e+00 5.904000e-01
      vertex   7.050000e-01 8.705000e+00 6.254000e-01
    endloop
  endfacet
  facet normal 0.000000e+00 1.000000e+00 0.000000e+00
    outer loop
      vertex   7.050000e-01 8.705000e+00 6.254000e-01
      vertex   -7.050000e-01 8.705000e+00 5.904000e-01
      vertex   -7.050000e-01 8.705000e+00 6.254000e-01
    endloop
  endfacet
  facet normal 1.000000e+00 0.000000e+00 -3.172066e-15
    outer loop
      vertex   7.050000e-01 7.050000e-01 5.904000e-01
      vertex   7.050000e-01 8.705000e+00 5.904000e-01
      vertex   7.050000e-01 7.050000e-01 6.254000e-01
    endloop
  endfacet
  facet normal 1.000000e+00 0.000000e+00 -3.172066e-15
    outer loop
      vertex   7.050000e-01 7.050000e-01 6.254000e-01
      vertex   7.050000e-01 8.705000e+00 5.904000e-01
      vertex   7.050000e-01 8.705000e+00 6.254000e-01
    endloop
  endfacet
  facet normal 2.372525e-18 1.000000e+00 -0.000000e+00
    outer loop
      vertex   4.750000e+01 7.050000e-01 5.904000e-01
      vertex   7.050000e-01 7.050000e-01 5.904000e-01
      vertex   4.750000e+01 7.050000e-01 6.254000e-01
    endloop
  endfacet
  facet normal 2.372525e-18 1.000000e+00 0.000000e+00
    outer loop
      vertex   4.750000e+01 7.050000e-01 6.254000e-01
      vertex   7.050000e-01 7.050000e-01 5.904000e-01
      vertex   7.050000e-01 7.050000e-01 6.254000e-01
    endloop
  endfacet
  facet normal 1.000000e+00 0.000000e+00 0.000000e+00
    outer loop
      vertex   4.750000e+01 -7.050000e-01 5.904000e-01
      vertex   4.750000e+01 7.050000e-01 5.904000e-01
      vertex   4.750000e+01 -7.050000e-01 6.254000e-01
    endloop
  endfacet
  facet normal 1.000000e+00 -0.000000e+00 0.000000e+00
    outer loop
      vertex   4.750000e+01 -7.050000e-01 6.254000e-01
      vertex   4.750000e+01 7.050000e-01 5.904000e-01
      vertex   4.750000e+01 7.050000e-01 6.254000e-01
    endloop
  endfacet
  facet normal 7.362532e-17 -1.000000e+00 0.000000e+00
    outer loop
      vertex   -4.750000e+01 -7.050000e-01 5.904000e-01
      vertex   4.750000e+01 -7.050000e-01 5.904000e-01
      vertex   -4.750000e+01 -7.050000e-01 6.254000e-01
    endloop
  endfacet
  facet normal 7.362532e-17 -1.000000e+00 0.000000e+00
    outer loop
      vertex   -4.750000e+01 -7.050000e-01 6.254000e-01
      vertex   4.750000e+01 -7.050000e-01 5.904000e-01
      vertex   4.750000e+01 -7.050000e-01 6.254000e-01
    endloop
  endfacet
  facet normal -1.000000e+00 0.000000e+00 0.000000e+00
    outer loop
      vertex   -4.750000e+01 7.050000e-01 5.904000e-01
      vertex   -4.750000e+01 -7.050000e-01 5.904000e-01
      vertex   -4.750000e+01 7.050000e-01 6.254000e-01
    endloop
  endfacet
  facet normal -1.000000e+00 -0.000000e+00 0.000000e+00
    outer loop
      vertex   -4.750000e+01 7.050000e-01 6.254000e-01
      vertex   -4.750000e+01 -7.050000e-01 5.904000e-01
      vertex   -4.750000e+01 -7.050000e-01 6.254000e-01
    endloop
  endfacet
  facet normal -0.000000e+00 0.000000e+00 1.000000e+00
    outer loop
      vertex   -4.750000e+01 7.050000e-01 6.254000e-01
      vertex   -4.750000e+01 -7.050000e-01 6.254000e-01
      vertex   -7.050000e-01 7.050000e-01 6.254000e-01
    endloop
  endfacet
  facet normal 0.000000e+00 0.000000e+00 1.000000e+00
    outer loop
      vertex   -7.050000e-01 7.050000e-01 6.254000e-01
      vertex   -4.750000e+01 -7.050000e-01 6.254000e-01
      vertex   4.750000e+01 -7.050000e-01 6.254000e-01
    endloop
  endfacet
  facet normal -0.000000e+00 0.000000e+00 1.000000e+00
    outer loop
      vertex   -7.050000e-01 7.050000e-01 6.254000e-01
      vertex   4.750000e+01 -7.050000e-01 6.254000e-01
      vertex   7.050000e-01 7.050000e-01 6.254000e-01
    endloop
  endfacet
  facet normal 0.000000e+00 0.000000e+00 1.000000e+00
    outer loop
      vertex   7.050000e-01 7.050000e-01 6.254000e-01
      vertex   4.750000e+01 -7.050000e-01 6.254000e-01
      vertex   4.750000e+01 7.050000e-01 6.254000e-01
    endloop
  endfacet
  facet normal 0.000000e+00 0.000000e+00 1.000000e+00
    outer loop
      vertex   7.050000e-01 8.705000e+00 6.254000e-01
      vertex   -7.050000e-01 8.705000e+00 6.254000e-01
      vertex   7.050000e-01 7.050000e-01 6.254000e-01
    endloop
  endfacet
  facet normal 0.000000e+00 0.000000e+00 1.000000e+00
    outer loop
      vertex   7.050000e-01 7.050000e-01 6.254000e-01
      vertex   -7.050000e-01 8.705000e+00 6.254000e-01
      vertex   -7.050000e-01 7.050000e-01 6.254000e-01
    endloop
  endfacet
  facet normal 0.000000e+00 0.000000e+00 -1.000000e+00
    outer loop
      vertex   -4.750000e+01 7.050000e-01 5.904000e-01
      vertex   -7.050000e-01 7.050000e-01 5.904000e-01
      vertex   -4.750000e+01 -7.050000e-01 5.904000e-01
    endloop
  endfacet
  facet normal 0.000000e+00 0.000000e+00 -1.000000e+00
    outer loop
      vertex   -4.750000e+01 -7.050000e-01 5.904000e-01
      vertex   -7.050000e-01 7.050000e-01 5.904000e-01
      vertex   7.050000e-01 7.050000e-01 5.904000e-01
    endloop
  endfacet
  facet normal 0.000000e+00 0.000000e+00 -1.000000e+00
    outer loop
      vertex   -4.750000e+01 -7.050000e-01 5.904000e-01
      vertex   7.050000e-01 7.050000e-01 5.904000e-01
      vertex   4.750000e+01 -7.050000e-01 5.904000e-01
    endloop
  endfacet
  facet normal 0.000000e+00 0.000000e+00 -1.000000e+00
    outer loop
      vertex   4.750000e+01 -7.050000e-01 5.904000e-01
      vertex   7.050000e-01 7.050000e-01 5.904000e-01
      vertex   4.750000e+01 7.050000e-01 5.904000e-01
    endloop
  endfacet
  facet normal 0.000000e+00 0.000000e+00 -1.000000e+00
    outer loop
      vertex   -7.050000e-01 8.705000e+00 5.904000e-01
      vertex   7.050000e-01 8.705000e+00 5.904000e-01
      vertex   -7.050000e-01 7.050000e-01 5.904000e-01
    endloop
  endfacet
  facet normal 0.000000e+00 0.000000e+00 -1.000000e+00
    outer loop
      vertex   -7.050000e-01 7.050000e-01 5.904000e-01
      vertex   7.050000e-01 8.705000e+00 5.904000e-01
      vertex   7.050000e-01 7.050000e-01 5.904000e-01
    endloop
  endfacet
endsolid
