solid ASCII
  facet normal -1.000000e+00 0.000000e+00 0.000000e+00
    outer loop
      vertex   -4.750000e+01 2.375000e+01 0.000000e+00
      vertex   -4.750000e+01 -2.375000e+01 0.000000e+00
      vertex   -4.750000e+01 2.375000e+01 5.904000e-01
    endloop
  endfacet
  facet normal -1.000000e+00 -0.000000e+00 0.000000e+00
    outer loop
      vertex   -4.750000e+01 2.375000e+01 5.904000e-01
      vertex   -4.750000e+01 -2.375000e+01 0.000000e+00
      vertex   -4.750000e+01 -2.375000e+01 5.904000e-01
    endloop
  endfacet
  facet normal 0.000000e+00 1.000000e+00 -0.000000e+00
    outer loop
      vertex   4.750000e+01 2.375000e+01 0.000000e+00
      vertex   -4.750000e+01 2.375000e+01 0.000000e+00
      vertex   4.750000e+01 2.375000e+01 5.904000e-01
    endloop
  endfacet
  facet normal 0.000000e+00 1.000000e+00 0.000000e+00
    outer loop
      vertex   4.750000e+01 2.375000e+01 5.904000e-01
      vertex   -4.750000e+01 2.375000e+01 0.000000e+00
      vertex   -4.750000e+01 2.375000e+01 5.904000e-01
    endloop
  endfacet
  facet normal 1.000000e+00 0.000000e+00 0.000000e+00
    outer loop
      vertex   4.750000e+01 -2.375000e+01 0.000000e+00
      vertex   4.750000e+01 2.375000e+01 0.000000e+00
      vertex   4.750000e+01 -2.375000e+01 5.904000e-01
    endloop
  endfacet
  facet normal 1.000000e+00 -0.000000e+00 0.000000e+00
    outer loop
      vertex   4.750000e+01 -2.375000e+01 5.904000e-01
      vertex   4.750000e+01 2.375000e+01 0.000000e+00
      vertex   4.750000e+01 2.375000e+01 5.904000e-01
    endloop
  endfacet
  facet normal 0.000000e+00 -1.000000e+00 0.000000e+00
    outer loop
      vertex   -4.750000e+01 -2.375000e+01 0.000000e+00
      vertex   4.750000e+01 -2.375000e+01 0.000000e+00
      vertex   -4.750000e+01 -2.375000e+01 5.904000e-01
    endloop
  endfacet
  facet normal 0.000000e+00 -1.000000e+00 0.000000e+00
    outer loop
      vertex   -4.750000e+01 -2.375000e+01 5.904000e-01
      vertex   4.750000e+01 -2.375000e+01 0.000000e+00
      vertex   4.750000e+01 -2.375000e+01 5.904000e-01
    endloop
  endfacet
  facet normal 0.000000e+00 0.000000e+00 1.000000e+00
    outer loop
      vertex   -4.750000e+01 -2.375000e+01 5.904000e-01
      vertex   4.750000e+01 -2.375000e+01 5.904000e-01
      vertex   -4.750000e+01 2.375000e+01 5.904000e-01
    endloop
  endfacet
  facet normal -0.000000e+00 0.000000e+00 1.000000e+00
    outer loop
      vertex   -4.750000e+01 2.375000e+01 5.904000e-01
      vertex   4.750000e+01 -2.375000e+01 5.904000e-01
      vertex   4.750000e+01 2.375000e+01 5.904000e-01
    endloop
  endfacet
  facet normal 0.000000e+00 0.000000e+00 -1.000000e+00
    outer loop
      vertex   4.750000e+01 -2.375000e+01 0.000000e+00
      vertex   -4.750000e+01 -2.375000e+01 0.000000e+00
      vertex   4.750000e+01 2.375000e+01 0.000000e+00
    endloop
  endfacet
  facet normal -0.000000e+00 0.000000e+00 -1.000000e+00
    outer loop
      vertex   4.750000e+01 2.375000e+01 0.000000e+00
      vertex   -4.750000e+01 -2.375000e+01 0.000000e+00
      vertex   -4.750000e+01 2.375000e+01 0.000000e+00
    endloop
  endfacet
endsolid
